<svg version="1.1" xmlns="http://www.w3.org/2000/svg" viewBox="0 0 1889.214773252953 516.0650297369388" width="3778.429546505906" height="1032.1300594738775">
  <!-- svg-source:excalidraw -->
  
  <defs>
    <style class="style-fonts">
      @font-face {
        font-family: "Virgil";
        src: url("https://excalidraw.com/Virgil.woff2");
      }
      @font-face {
        font-family: "Cascadia";
        src: url("https://excalidraw.com/Cascadia.woff2");
      }
    </style>
  </defs>
  <rect x="0" y="0" width="1889.214773252953" height="516.0650297369388" fill="#ffffff"></rect><g stroke-linecap="round" transform="translate(10 17.90923035226922) rotate(0 196.4125537480183 175.3212728086338)"><path d="M32 0 M32 0 C112.08 3.62, 196.96 1.3, 360.83 0 M32 0 C113.21 -2.34, 196.83 -0.81, 360.83 0 M360.83 0 C379.01 0.91, 396.38 9.35, 392.83 32 M360.83 0 C382.39 -2.41, 393.47 7.52, 392.83 32 M392.83 32 C394.88 114.88, 393.88 194.64, 392.83 318.64 M392.83 32 C392.27 140.58, 389.85 251.14, 392.83 318.64 M392.83 318.64 C395.77 336.83, 380.12 349.32, 360.83 350.64 M392.83 318.64 C392.29 337.49, 383.42 348.43, 360.83 350.64 M360.83 350.64 C232.15 350.52, 104.07 349.5, 32 350.64 M360.83 350.64 C267.72 348.99, 175.96 348.22, 32 350.64 M32 350.64 C11.28 349.95, -2.96 342.57, 0 318.64 M32 350.64 C13.58 347.69, 1.91 336.72, 0 318.64 M0 318.64 C2.45 255.35, -1.12 187.8, 0 32 M0 318.64 C-4.51 215.66, -5.42 112.82, 0 32 M0 32 C-0.59 10.57, 10.32 -0.52, 32 0 M0 32 C4.41 11.49, 9.77 -1.14, 32 0" stroke="#862e9c" stroke-width="4" fill="none"></path></g><g transform="translate(143.4125537480183 170.23050316090303) rotate(0 63 23)"><text x="63" y="32" font-family="Virgil, Segoe UI Emoji" font-size="36px" fill="#862e9c" text-anchor="middle" style="white-space: pre;" direction="ltr">Alerter</text></g><g stroke-linecap="round" transform="translate(812.7868807553232 17.90923035226922) rotate(0 196.41255374801827 175.3212728086338)"><path d="M32 0 M32 0 C119.28 1.11, 204.28 1.48, 360.83 0 M32 0 C130.07 1.8, 227.11 0.87, 360.83 0 M360.83 0 C381.54 -1.97, 391.07 9.62, 392.83 32 M360.83 0 C381.29 -1.53, 394.22 9.63, 392.83 32 M392.83 32 C391.7 139.48, 393.18 245.43, 392.83 318.64 M392.83 32 C393.9 123.44, 394.5 213.27, 392.83 318.64 M392.83 318.64 C393.32 339.05, 382.68 349.47, 360.83 350.64 M392.83 318.64 C394.61 340.95, 382.61 348.63, 360.83 350.64 M360.83 350.64 C246.76 351.59, 132.42 351.43, 32 350.64 M360.83 350.64 C287.8 352.25, 214.83 353.04, 32 350.64 M32 350.64 C11.83 351.67, 1.94 341.02, 0 318.64 M32 350.64 C9.23 352.59, 1.46 338.19, 0 318.64 M0 318.64 C2.67 247.75, 0.53 178.07, 0 32 M0 318.64 C-1.82 206.16, -1.95 95.51, 0 32 M0 32 C0.11 9.56, 11.8 0.41, 32 0 M0 32 C1.15 8.61, 11.95 1.39, 32 0" stroke="#c92a2a" stroke-width="2" fill="none"></path></g><g transform="translate(896.1994345033415 170.2305031609029) rotate(0 113 23)"><text x="113" y="32" font-family="Virgil, Segoe UI Emoji" font-size="36px" fill="#c92a2a" text-anchor="middle" style="white-space: pre;" direction="ltr">CommentForm</text></g><g stroke-linecap="round" transform="translate(1433.6614634084553 10) rotate(0 196.41255374801835 175.3212728086338)"><path d="M32 0 M32 0 C109.26 -2.13, 184.93 -1.95, 360.83 0 M32 0 C109.21 -0.63, 188.18 -1.71, 360.83 0 M360.83 0 C382.86 1.14, 391 9.48, 392.83 32 M360.83 0 C380.31 -1.66, 393.05 8.69, 392.83 32 M392.83 32 C390.93 133.12, 391.12 234.51, 392.83 318.64 M392.83 32 C394.71 121.45, 394.61 212.41, 392.83 318.64 M392.83 318.64 C392.38 338.42, 383.89 351.29, 360.83 350.64 M392.83 318.64 C391.78 340.63, 383.32 349.71, 360.83 350.64 M360.83 350.64 C292.5 350.94, 221.89 348.9, 32 350.64 M360.83 350.64 C237.79 348.63, 113.93 348.54, 32 350.64 M32 350.64 C11.23 350.08, 1.64 338.14, 0 318.64 M32 350.64 C12.4 351.75, -1.9 341.84, 0 318.64 M0 318.64 C0.86 254.87, 0.41 191.78, 0 32 M0 318.64 C0.75 229.88, 1.37 139.11, 0 32 M0 32 C-1.98 11.71, 9.59 -1.79, 32 0 M0 32 C-2.12 10.33, 11.76 2.22, 32 0" stroke="#364fc7" stroke-width="2" fill="none"></path></g><g transform="translate(1512.0740171564735 162.3212728086337) rotate(0 118 23)"><text x="118" y="32" font-family="Virgil, Segoe UI Emoji" font-size="36px" fill="#364fc7" text-anchor="middle" style="white-space: pre;" direction="ltr">CommentsList</text></g><g stroke-linecap="round" transform="translate(225.2090889781045 307.9143432688064) rotate(0 105.45640469692262 50.091792231038255)"><path d="M24.41 -3.53 L184.75 2.99 L203.36 6.61 L210.54 9.22 L210.95 19.14 L208.24 77.45 L208.54 92.76 L199.83 99.39 L189.69 97.46 L25.89 103.77 L9.92 96.13 L1.08 93.9 L-1.59 84.46 L-0.7 16.02 L1.18 9.24 L8.99 1.29 L24.54 -2.5" stroke="none" stroke-width="0" fill="#be4bdb"></path><path d="M25.05 0 M25.05 0 C80.64 2.15, 131.13 -0.23, 185.87 0 M25.05 0 C84.37 -2.7, 139.83 -1.32, 185.87 0 M185.87 0 C200.7 -2.6, 214 9.23, 210.91 25.05 M185.87 0 C205.06 -1.21, 214.95 10.55, 210.91 25.05 M210.91 25.05 C208.65 42.92, 206.97 58.68, 210.91 75.14 M210.91 25.05 C213.22 42.25, 210.69 62.65, 210.91 75.14 M210.91 75.14 C209.46 88.6, 198.94 96.36, 185.87 100.18 M210.91 75.14 C214.43 89.46, 205.33 97.2, 185.87 100.18 M185.87 100.18 C143.99 98.95, 107.68 105.7, 25.05 100.18 M185.87 100.18 C142.64 101.77, 104.28 103.24, 25.05 100.18 M25.05 100.18 C5.9 102.62, 0.73 93.64, 0 75.14 M25.05 100.18 C9.94 97.45, 2.87 90.5, 0 75.14 M0 75.14 C2.35 61.25, -1.6 51.34, 0 25.05 M0 75.14 C-0.06 56.49, 0.77 35.15, 0 25.05 M0 25.05 C1.84 11.25, 8.48 -0.3, 25.05 0 M0 25.05 C-3.55 7.1, 10.45 4.11, 25.05 0" stroke="#862e9c" stroke-width="4" fill="none"></path></g><g transform="translate(245.6654936750271 335.0061354998446) rotate(0 85 23)"><text x="85" y="32" font-family="Virgil, Segoe UI Emoji" font-size="36px" fill="#000000" text-anchor="middle" style="white-space: pre;" direction="ltr">showAlert</text></g><g stroke-linecap="round"><g transform="translate(793.0138048746502 182.68486269121104) rotate(0 -175.36851469462184 63.04076428938987)"><path d="M-1.1 0.68 C-39.25 3.73, -171.22 -2.63, -229.46 18.15 C-287.7 38.93, -330.42 107.38, -350.55 125.38 M0.53 0 C-37.75 3.23, -171.83 -1.49, -230.46 19.53 C-289.09 40.54, -331.39 108.17, -351.27 126.09" stroke="#000000" stroke-width="4" fill="none"></path></g><g transform="translate(793.0138048746502 182.68486269121104) rotate(0 -175.36851469462184 63.04076428938987)"><path d="M-339.17 98 C-343.67 105.4, -347.92 113.15, -351.95 127.1 M-339.52 98.01 C-344.01 108, -347.65 117.69, -352 125.09" stroke="#000000" stroke-width="4" fill="none"></path></g><g transform="translate(793.0138048746502 182.68486269121104) rotate(0 -175.36851469462184 63.04076428938987)"><path d="M-323.78 111.58 C-332.22 115.34, -340.44 119.6, -351.95 127.1 M-324.14 111.59 C-333.73 116.89, -342.56 121.99, -352 125.09" stroke="#000000" stroke-width="4" fill="none"></path></g></g><mask></mask><g stroke-linecap="round"><g transform="translate(800.229305031966 321.0649656157691) rotate(0 -179.10512312883034 61.28432003193143)"><path d="M-0.3 0.09 C-26.42 20.4, -96.24 109.79, -156.02 121.74 C-215.8 133.69, -325.28 80.35, -358.96 71.79 M1.74 -0.9 C-24.09 19.04, -93.64 108.06, -153.92 119.84 C-214.2 131.62, -326 77.9, -359.95 69.77" stroke="#000000" stroke-width="4" fill="none"></path></g><g transform="translate(800.229305031966 321.0649656157691) rotate(0 -179.10512312883034 61.28432003193143)"><path d="M-329.8 67.34 C-339.94 68.69, -350.35 70.31, -361.3 68.4 M-329.46 69.54 C-340.56 68.79, -353.65 68.9, -359.53 69.58" stroke="#000000" stroke-width="4" fill="none"></path></g><g transform="translate(800.229305031966 321.0649656157691) rotate(0 -179.10512312883034 61.28432003193143)"><path d="M-336.5 86.74 C-344.24 81.18, -352.25 75.88, -361.3 68.4 M-336.17 88.93 C-344.7 80.83, -355.25 73.61, -359.53 69.58" stroke="#000000" stroke-width="4" fill="none"></path></g></g><mask></mask><g transform="translate(475.6461246588434 137.68435139955727) rotate(347.89798096113833 88 23)"><text x="88" y="32" font-family="Virgil, Segoe UI Emoji" font-size="36px" fill="#000000" text-anchor="middle" style="white-space: pre;" direction="ltr">onSuccess</text></g><g transform="translate(598.0115040622085 447.053565490325) rotate(347.89798096113833 64.5 23)"><text x="64.5" y="32" font-family="Virgil, Segoe UI Emoji" font-size="36px" fill="#000000" text-anchor="middle" style="white-space: pre;" direction="ltr">onError</text></g><g stroke-linecap="round" transform="translate(1610.3009412758001 301.32331797524887) rotate(0 134.45691598857638 54.04640740717281)"><path d="M28.65 0.06 L241.48 0.21 L254.75 2.18 L263.58 7.56 L264.66 9.13 L270.32 21.17 L267.49 79.25 L267.41 93.01 L266.56 96.79 L260.11 105.06 L249.58 109.56 L243.53 107.67 L28.38 106.4 L16.06 108.23 L8.95 105.15 L2.09 98.45 L-0.3 89.39 L-0.89 19.06 L2.39 13.51 L7.42 6.6 L16.44 0.22 L27.75 -0.86" stroke="none" stroke-width="0" fill="#4c6ef5"></path><path d="M27.02 0 M27.02 0 C103.92 -1.85, 182.46 -2.49, 241.89 0 M27.02 0 C78.72 0.14, 131.34 0.84, 241.89 0 M241.89 0 C261.46 -1.7, 268.37 8.95, 268.91 27.02 M241.89 0 C261.31 1.92, 270.59 10.86, 268.91 27.02 M268.91 27.02 C268.65 46.55, 269.35 66.56, 268.91 81.07 M268.91 27.02 C269.24 43.06, 267.92 59.68, 268.91 81.07 M268.91 81.07 C266.98 97.33, 259.28 108.19, 241.89 108.09 M268.91 81.07 C266.89 99.56, 259.68 108.57, 241.89 108.09 M241.89 108.09 C194.49 108.45, 145.82 107.32, 27.02 108.09 M241.89 108.09 C186.44 110.15, 129.99 109.75, 27.02 108.09 M27.02 108.09 C8.3 109.53, -0.04 100.83, 0 81.07 M27.02 108.09 C7.92 109.92, -1.74 97.98, 0 81.07 M0 81.07 C-1.72 65.34, -0.8 46.38, 0 27.02 M0 81.07 C0.52 67.08, 0.97 52.02, 0 27.02 M0 27.02 C-1.21 10.57, 10.5 0.45, 27.02 0 M0 27.02 C-0.67 11.22, 10.75 -1.6, 27.02 0" stroke="#364fc7" stroke-width="4" fill="none"></path></g><g transform="translate(1638.2578572643765 332.36972538242173) rotate(0 106.5 23)"><text x="106.5" y="32" font-family="Virgil, Segoe UI Emoji" font-size="36px" fill="#000000" text-anchor="middle" style="white-space: pre;" direction="ltr">addComment</text></g><g stroke-linecap="round"><g transform="translate(1213.5684604896169 258.05562956653216) rotate(0 188.70934093869488 69.24729044340347)"><path d="M-0.13 -1.08 C26.1 20.8, 94.33 109.9, 157.54 131.11 C220.74 152.32, 342.12 127.11, 379.08 126.2 M-1.66 0.96 C24.95 22.5, 96.51 108.25, 159.91 129.31 C223.31 150.37, 342.02 127.84, 378.71 127.33" stroke="#000000" stroke-width="4" fill="none"></path></g><g transform="translate(1213.5684604896169 258.05562956653216) rotate(0 188.70934093869488 69.24729044340347)"><path d="M349.75 139 C361.05 137.4, 367.91 133.83, 377.21 129.31 M351.26 140.16 C362.31 134.6, 371.52 130.8, 378.13 127.09" stroke="#000000" stroke-width="4" fill="none"></path></g><g transform="translate(1213.5684604896169 258.05562956653216) rotate(0 188.70934093869488 69.24729044340347)"><path d="M347.91 118.56 C359.75 123.33, 367.18 126.12, 377.21 129.31 M349.42 119.72 C361.04 121.8, 370.94 125.64, 378.13 127.09" stroke="#000000" stroke-width="4" fill="none"></path></g></g><mask></mask><g transform="translate(1292.9332610599931 410.14382384640214) rotate(9.462322208025673 88 23)"><text x="88" y="32" font-family="Virgil, Segoe UI Emoji" font-size="36px" fill="#000000" text-anchor="middle" style="white-space: pre;" direction="ltr">onSuccess</text></g></svg>